<?xml version="1.0" encoding="iso-8859-1"?>
<!-- Generator: Adobe Illustrator 19.0.0, SVG Export Plug-In . SVG Version: 6.00 Build 0)  -->
<svg version="1.1" id="Layer_1" xmlns="http://www.w3.org/2000/svg" xmlns:xlink="http://www.w3.org/1999/xlink" x="0px" y="0px"
	 viewBox="0 0 512 512" style="enable-background:new 0 0 512 512;" xml:space="preserve">
<circle style="fill:#D9E6E8;" cx="256" cy="256" r="256"/>
<path style="fill:#263740;" d="M260,136c-4.4,0-9.608-3.22-11.58-7.156l-8.844-17.688C237.608,107.22,232.4,104,228,104H128
	c-8,0-16,8-16,16v8c0,4.4,0,11.6,0,16v228c0,4.4,11.6,16,16,16h264c4.4,0,16-11.6,16-16V152c0-12-4-16-16-16H260z"/>
<path style="fill:#1E2C33;" d="M392,136h-16c12,0,16,4,16,16v220c0,4.4-11.6,16-16,16h16c4.4,0,16-11.6,16-16V152
	C408,140,404,136,392,136z"/>
<path style="fill:#F5F5F5;" d="M384,220c0,8.8-7.2,16-16,16H152c-8.8,0-16-7.2-16-16v-48c0-8.8,7.2-16,16-16h216c8.8,0,16,7.2,16,16
	V220z"/>
<path style="fill:#F8CF25;" d="M392,200H128c-8,0-16,8-16,16v156c0,8,8,16,16,16h264c8,0,16-8,16-16V216C408,208,400,200,392,200z"
	/>
<path style="fill:#EFC822;" d="M392,200h-16c8,0,16,8,16,16v156c0,8-8,16-16,16h16c8,0,16-8,16-16V216C408,208,400,200,392,200z"/>
<path style="fill:#D9E6E8;" d="M376,424c-37.496,0-68-30.504-68-68s30.504-68,68-68s68,30.504,68,68S413.496,424,376,424z"/>
<circle style="fill:#2D4452;" cx="376" cy="356" r="52"/>
<g>
	<path style="fill:#F5F5F5;" d="M376,388c-2.212,0-4-1.788-4-4v-56c0-2.212,1.788-4,4-4s4,1.788,4,4v56
		C380,386.212,378.212,388,376,388z"/>
	<path style="fill:#F5F5F5;" d="M376,388c-1.024,0-2.048-0.392-2.828-1.172l-20-20c-1.564-1.564-1.564-4.092,0-5.656
		s4.092-1.564,5.656,0L376,378.344l17.172-17.172c1.564-1.564,4.092-1.564,5.656,0s1.564,4.092,0,5.656l-20,20
		C378.048,387.608,377.024,388,376,388z"/>
</g>
<g>
</g>
<g>
</g>
<g>
</g>
<g>
</g>
<g>
</g>
<g>
</g>
<g>
</g>
<g>
</g>
<g>
</g>
<g>
</g>
<g>
</g>
<g>
</g>
<g>
</g>
<g>
</g>
<g>
</g>
</svg>
