<?xml version="1.0"?>
<svg xmlns:rdf="http://www.w3.org/1999/02/22-rdf-syntax-ns#" xmlns="http://www.w3.org/2000/svg" xmlns:cc="http://web.resource.org/cc/" xmlns:dc="http://purl.org/dc/elements/1.1/" xmlns:sodipodi="http://inkscape.sourceforge.net/DTD/sodipodi-0.dtd" id="svg15706" xml:space="preserve" viewBox="-0.565 -0.524 730 647" sodipodi:version="0.32" version="1.0" sodipodi:docname="13_3.svg" sodipodi:docbase="C:\foo\wikipedia\transfer"><sodipodi:namedview id="base" bordercolor="#666666" borderopacity="1.0" showguides="true" pagecolor="#ffffff"><sodipodi:guide id="guide16841" position="214.52255" orientation="horizontal"/></sodipodi:namedview>
	<g id="g16744" transform="matrix(3.2018 0 0 3.2018 -1593.9 -1423)"><path id="path15720" stroke="#000" stroke-width="1.44" fill="#7f7f7f" d="m718.52 586.04l4.46 8.14c1.51 2.95 2.38 6.19 2.38 9.58 0 5.32-2.09 10.36-5.91 14.18l-9.93 4.82h-198.08l-10.65-5.76c-5.47-7.56-6.77-17.42-3.53-26.13 0.94-2.38 2.3-4.61 3.89-6.63-1.8 2.02-3.1 4.54-3.67 7.2 0.28 1.95 1.65 3.46 3.45 4.04l3.67 1 7.35 0.8h204.55c2.45-0.08 4.61-1.37 5.76-3.46l0.22-0.5-3.96-7.28z"/><rect id="rect15722" height="15.768" width="75.96" stroke="#000" y="605.2" x="572.14" stroke-width=".216" fill="#fff"/><path id="path15724" stroke="#000" stroke-width=".216" d="m588.56 490.43l0.43 0.14v0.79l-2.09 2.45c-6.62 4.61-15.26 5.04-22.32 1.15l-0.58-1.94 0.15-0.22 8.85 0.15h4.68l2.52-0.36-0.07-0.36-2.81 0.36-6.26 0.07-3.74-0.22-2.67 0.15-1.08-0.36-1.65-0.79c-0.94-0.51-1.3-1.59-1.08-2.6 0.93-3.16 2.8-6.04 5.47-8.06l4.75-0.36 6.26-0.58 2.88-0.43c1.95-0.5 3.89 0.07 5.4 1.37 0.8 0.65 1.44 1.44 1.95 2.23 0.79 1.23 1.44 2.59 1.8 4.11 0.07 0.21 0.14 0.5 0.14 0.86 0 0.86-0.36 1.8-0.93 2.45z"/><path id="path16022" stroke="#000" stroke-width="1.44" fill="#7f7f7f" d="m624.34 570.78c-1.01 0-1.94 0.79-2.09 1.8v1.51h-22.68v-1.29c0-1.08-0.86-1.95-1.87-2.02h-21.74c-0.87 0.14-1.59 0.79-1.8 1.66v1.36l-1.66-0.93-2.38-3.75c-0.72-1.29 0.15-2.88 1.59-2.95h78.77c0.79 0 1.44 0.72 1.44 1.59 0 0.28 0 0.5-0.15 0.72l-2.95 4.32-1.08 0.86v-0.79c0-1.15-0.94-2.09-2.02-2.09h-21.38z"/><polygon id="polygon16032" points="616.35 609.73 616.13 616.86 640.61 616.86 640.68 609.37 634.64 609.37 630.82 610.02 627.65 609.88 623.12 609.95 622.04 610.81 618.29 609.66" fill="#7f7f7f"/><polygon id="polygon16034" stroke-width=".216" stroke="#000" points="616.35 609.73 616.13 616.86 640.61 616.86 640.68 609.37 634.64 609.37 630.82 610.02 627.65 609.88 623.12 609.95 622.04 610.81 618.29 609.66" fill="none"/><polygon id="polygon16036" points="583.08 609.52 579.05 609.23 576.24 609.52 576.6 615.64 576.6 616.93 587.98 616.93 602.31 616.93 603.1 609.23 599 609.23 592.44 609.95 587.98 609.52" fill="#7f7f7f"/><polygon id="polygon16038" stroke-width=".216" stroke="#000" points="583.08 609.52 579.05 609.23 576.24 609.52 576.6 615.64 576.6 616.93 587.98 616.93 602.31 616.93 603.1 609.23 599 609.23 592.44 609.95 587.98 609.52" fill="none"/><line id="line16062" stroke-width=".216" x1="575.38" y1="513.68" stroke="#000" x2="573.58" y2="513.25" fill="none"/><path id="path16096" stroke="#000" stroke-width="1.44" fill="none" d="m565.59 495.47l0.21 1.51 0.94 1.58 0.72 1.8 0.22 1.66 0.43 2.09 1.15 2.59c1.87 1.8 4.39 2.81 7.06 2.81 3.16 0 6.19-1.59 8.06-4.11 0.43-0.57 0.65-1.15 0.72-1.8 0.22-1.8 0.43-3.67 0.72-5.47 0.14-1.15 0.36-2.52 0.43-3.89"/><polygon id="polygon16098" stroke-width=".216" stroke="#000" points="581.57 492.23 583.66 492.08 585.17 491.94 587.04 491.44 587.84 490.72 586.68 491.15 585.6 491.29 583.88 491.65 582.36 492.01 581.64 492.01" fill="none"/><polygon id="polygon16100" stroke-width=".216" stroke="#000" points="573.29 486.76 575.24 486.83 577.18 486.4 577.04 485.75 576.32 485.32 575.02 485.32 573.51 485.6 573.15 486.04" fill="#fff"/><polygon id="polygon16102" stroke="#000" stroke-width=".216" points="553.85 516.06 554.21 515.2 556.16 513.83 558.1 512.75 559.68 511.81 562.42 510.88 564.65 509.87 566.09 509.29 567.68 508.36 568.97 507.2 569.76 508.36 570.56 509 571.71 509.36 572.72 509.58 573.58 511.67 573.58 513.83 566.38 515.7 573.87 515.48 574.44 516.28 574.3 517.43 573.8 517.64 568.18 517.72 567.6 517.21 567.6 516.56 565.08 516.71 561.77 516.13"/><polygon id="polygon16104" stroke="#000" stroke-width=".216" points="552.56 519.23 556.37 518.87 558.6 518.51 561.77 518.44 562.64 518.15 562.49 517.36 555.51 516.85 555.22 516.56 553.78 516.64 553.06 517.64 552.41 517.93 552.12 518.65"/><polygon id="polygon16106" stroke="#000" stroke-width=".216" points="577.54 515.48 575.81 515.7 575.88 515.99 576.03 516.49 576.46 517.43 576.96 517.72 577.4 517.36 577.61 516.64 577.61 515.77"/><polygon id="polygon16108" stroke="#000" stroke-width=".216" points="575.81 514.26 577.83 514.04 577.83 511.6 577.4 510.44 576.89 510.23 576.24 510.59 575.6 510.44 575.24 510.44 575.16 511.02 575.16 512.6"/><polygon id="polygon16110" stroke="#000" stroke-width=".216" points="580.56 513.47 588.56 513.32 599.64 514.19 599.79 513.32 590.64 508.79 588.99 508.14 587.33 507.71 586.61 507.71 585.53 506.99 584.74 506.12 582 507.85 580.42 511.67 580.28 512.53 580.42 513.04"/><polygon id="polygon16112" stroke="#000" stroke-width=".216" points="600.87 517.28 600.87 516.42 590.28 515.56 583.3 515.41 580.06 515.48 578.91 515.99 578.55 516.64 578.48 517.79"/><path id="path16114" stroke="#000" stroke-width="1.44" fill="none" d="m630.17 494.46l1.15 2.45 0.22 3.17 3.31 8.06c1.66 1.66 3.89 2.66 6.27 2.66 2.37 0 4.75-1 6.33-2.73l2.31-4.75 1.29-6.27 1.15-3.67"/><polygon id="polygon16116" stroke-width=".216" stroke="#000" points="652.28 490.28 653.79 490 653.64 489.13 653.07 489.49" fill="none"/><polygon id="polygon16118" stroke-width=".216" stroke="#000" points="650.62 492.23 651.84 492.01 653.14 491.65 653.5 491.44 653.36 491.29 653 491.29 652.49 491.65 651.48 491.94 650.69 492.08" fill="none"/><polygon id="polygon16120" stroke-width=".216" stroke="#000" points="641.04 493.31 642.48 493.52 644.93 493.45 646.59 493.31 647.74 492.95 649.25 492.59 649.25 492.3 647.74 492.44 646.3 492.66 644.86 492.95 643.56 492.95 642.2 493.02 641.26 493.02 641.04 493.09" fill="none"/><path id="path16122" stroke="#000" stroke-width=".216" d="m628.3 493.81l8.71 2.95c1.23 0.29 2.52 0.36 3.75 0.36 1.51 0 3.09-0.14 4.68-0.57 3.38-0.94 6.48-2.67 9.07-4.97v-3.24l-0.36-0.86c0.07-0.15 0.07-0.22 0.07-0.44 0-2.37-1.22-4.6-3.31-5.9l-7.06-1.01-7.13-0.43-3.52 0.22-1.88 0.28c-2.08 1.08-3.67 2.88-4.24 5.19 0 0.14-0.08 0.29-0.08 0.43 0 0.29 0.15 0.65 0.36 0.94l0.08 1.08v1.36l0.93 1.16-0.14 0.64 0.65 0.87 0.43 0.36 7.41 0.5 1.52 0.22v0.36l-3.1-0.07-2.88-0.36-2.52-0.22-1.15-0.43-0.51 0.43-0.14 0.65 0.36 0.5z"/><polygon id="polygon16124" stroke-width=".216" stroke="#000" points="640.32 485.17 641.48 485.1 642.41 485.39 642.7 485.75 642.48 486.18 642.05 486.32 641.19 486.32 640.25 486.18 639.82 485.82 639.96 485.39" fill="#fff"/><polygon id="polygon16126" stroke="#000" stroke-width=".216" points="639.46 518.15 639.82 517.64 638.45 514.98 637.8 514.55 636.72 514.62 632.4 515.77 629.74 516.56 628.66 517.07 628.37 517.57 628.59 517.72 629.45 517.93"/><polygon id="polygon16128" stroke="#000" stroke-width=".216" points="642.12 514.12 641.19 514.04 640.32 514.19 639.6 514.55 639.39 514.91 640.04 517 640.4 517.43 640.83 517.79 641.12 517.79 641.26 517.28 641.48 516.28 642.05 515.12 642.27 514.4"/><path id="path16130" stroke="#000" stroke-width=".216" d="m642.77 518.51l7.42-0.15 2.95 0.22 2.3 0.43 1.16-0.29v-0.36c-3.1-2.37-6.92-3.74-10.8-3.74-0.65 0-1.37 0.07-2.02 0.14-0.22 0.87-0.72 1.66-1.51 2.16-0.22 0.22-0.29 0.44-0.29 0.72 0 0.44 0.36 0.8 0.79 0.87z"/><path id="path16132" stroke="#000" stroke-width=".216" d="m668.48 520.09c-1.59-4.46-5.33-7.99-9.94-9.21-3.02-0.8-6.19-1.8-9.22-2.96-0.21-0.14-0.43-0.14-0.64-0.14-0.51 0-0.94 0.14-1.3 0.5-3.46 3.39-9.07 3.32-12.53-0.14-6.55 1.01-12.67 4.03-17.35 8.64l0.86 0.14 3.46-0.21 3.46 0.36c3.81-2.02 7.99-3.39 12.31-3.82l-0.15-2.45 1.88 0.36 1.15 0.51-0.65 0.57 0.14 0.65 1.08 0.07 0.94-0.72-0.36-0.79 1.66-0.14 0.86-0.22-0.22 1.15 0.15 0.36 0.65 0.51 0.86 0.14c5.47-0.29 10.73 2.23 14.11 6.63l8.79 0.21z"/><path id="path16264" stroke="#000" stroke-width=".216" fill="#fff" d="m560.19 607.36l-51.19-1.01c-2.67 0-5.26-0.36-7.92-1.01-1.66-0.36-3.32-1.15-4.68-2.3l-0.22 1c3.1 2.16 6.7 3.32 10.44 3.32h0.5l53 1.29 0.07-1.29z"/><polygon id="polygon16266" stroke-width="1.44" stroke="#000" points="533.33 625.43 533.19 622.76 680.93 622.76 680.93 625.72 533.33 625.72" fill="#7f7f7f"/><path id="path16268" stroke="#000" stroke-width=".216" d="m500 615.85l2.73 20.09c0.72 2.74 2.16 5.26 4.32 7.2h21.03c1.44-1.58 2.66-3.53 3.38-5.54 1.22-3.89 1.87-7.92 1.87-11.96 0-0.93-0.07-1.87-0.14-2.88h-21.75l-10.65-5.76-0.79-1.15z"/><path id="path16270" stroke="#000" stroke-width=".216" d="m718.73 618.37l-1.51 10.51c-0.5 4.18-1.66 8.28-3.31 12.17-0.79 1.3-2.02 2.23-3.46 2.59h-25.13c-0.93-0.79-1.58-1.87-1.94-3.16-1.08-3.03-1.8-6.27-2.09-9.44-0.21-2.8-0.36-5.61-0.36-8.42l28.59 0.14 9.21-4.39z"/><path id="path16272" stroke="#000" stroke-width=".216" fill="#fff" d="m724.2 604.98c-2.23 1.73-4.89 3.02-7.63 3.6h-56.3v0.65h56.45c2.73-0.58 5.32-1.73 7.63-3.39l-0.15-0.86z"/><path id="path16274" stroke="#000" stroke-width="1.44" fill="#7f7f7f" d="m622.25 578.12h-22.68v2.6c-0.07 0.86-0.72 1.51-1.58 1.72h-21.82l3.96 3.82h61.71l3.96-3.74-21.82-0.08c-0.86-0.14-1.51-0.72-1.66-1.58l-0.07-2.74z"/><polygon id="polygon16276" stroke-width="1.44" stroke="#000" points="572.28 585.47 571.71 586.26 568.61 586.26 567.03 584.89 562.06 567.68 562.78 566.75 565.16 566.75 566.24 567.4 566.52 567.68" fill="#7f7f7f"/><polygon id="polygon16278" stroke-width="1.44" stroke="#000" points="649.25 585.47 649.83 586.26 652.92 586.26 654.51 584.89 659.48 567.68 658.76 566.75 656.38 566.75 655.3 567.4 655.01 567.68" fill="#7f7f7f"/><path id="path16280" stroke="#000" stroke-width="1.44" fill="#0c479d" d="m624.34 570.78h21.38c1.08 0 2.02 0.94 2.02 2.09v7.56c0 1.15-0.94 2.09-2.02 2.09h-21.38c-1.15 0-2.09-0.94-2.09-2.09v-7.56c0-1.15 0.94-2.09 2.09-2.09z"/><path id="path16282" stroke="#000" stroke-width="1.44" fill="#ed171f" d="m576.24 570.78h21.32c1.08 0 2.01 0.94 2.01 2.09v7.56c0 1.15-0.93 2.09-2.01 2.09h-21.32c-1.15 0-2.08-0.94-2.08-2.09v-7.56c0-1.15 0.93-2.09 2.08-2.09z"/><line id="line16284" stroke-width=".216" x1="667.76" y1="548.96" stroke="#000" x2="659.62" y2="564.08" fill="none"/><line id="line16286" stroke-width=".216" x1="678.05" y1="530.17" stroke="#000" x2="671" y2="541.62" fill="none"/><line id="line16288" stroke-width=".216" x1="611.74" y1="556.52" stroke="#000" x2="613.25" y2="556.38" fill="none"/><polyline id="polyline16290" stroke-width=".216" stroke="#000" points="607.85 556.24 608.64 556.52 610.08 556.52" fill="none"/><path id="path16292" stroke="#000" stroke-width=".216" fill="none" d="m607.2 555.44l0.15-1.22c1.94-0.86 4.17-0.72 5.9 0.43"/><line id="line16294" stroke-width=".216" x1="551.11" y1="545.87" stroke="#000" x2="561.63" y2="562.93" fill="none"/><line id="line16296" stroke-width=".216" x1="547.44" y1="539.96" stroke="#000" x2="548.09" y2="540.97" fill="none"/><path id="path16298" stroke="#000" stroke-width=".216" d="m532.68 545.22l-1.44 3.38 0.36 0.72h4.47c0.07-1.44 1.15-2.66 2.59-2.8l11.3-0.15 0.94-0.5 7.78-0.22 0.57-0.29 1.44-4.39-0.21-0.86-11.38 0.57-1.73 0.51-12.53 0.79-0.5 1.37 14.4-0.43 1.15-0.51 5.33-0.14-1.15 1.65-3.46 0.15-0.57 0.5-17.36 0.65z"/><line id="line16300" stroke-width=".216" x1="543.27" y1="531.4" stroke="#000" x2="547.08" y2="539.24" fill="none"/><polygon id="polygon16302" stroke="#000" stroke-width=".216" points="572.79 539.39 571.49 547.09 598.42 546.52 599.07 538.88"/><path id="path16304" stroke="#000" stroke-width=".216" fill="#fff" d="m593.67 544.28l-17.07 0.29 0.65-3.53c0.07-0.07 0.22-0.28 0.36-0.28l16.35-0.44 0.57 0.58-0.86 3.38z"/><path id="path16306" stroke="#000" stroke-width=".216" d="m579.99 522.25l-0.07 2.67h12.31l0.14-3.1c-3.53 0.14-7.56 0.22-11.59 0.43h-0.79z"/><line id="line16308" stroke-width=".216" x1="592.01" y1="515.41" stroke="#000" x2="592.52" y2="517.21" fill="none"/><polyline id="polyline16310" stroke-width="1.44" stroke="#000" points="585.39 502.6 586.18 503.39 591.08 513.4" fill="none"/><line id="line16312" stroke-width=".216" x1="560.91" y1="517" stroke="#000" x2="560.47" y2="518.58" fill="none"/><path id="path16314" stroke="#000" stroke-width="1.44" fill="none" d="m567.53 502.31c-1.37 1.29-2.37 2.88-3.09 4.53l-3.17 9.22"/><path id="path16316" stroke="#000" stroke-width=".216" d="m587.55 521.96l-3.17-1.94-1.22 0.65c-9.94-3.39-20.31-5.04-30.82-5.04-6.26 0-12.53 0.65-18.65 1.8l-0.43 1.22c16.56-3.24 33.7-2.3 49.75 2.67l0.15 0.79 4.39-0.15z"/><polygon id="polygon16318" stroke="#000" stroke-width=".216" points="615.41 538.52 610.73 538.52 610.73 546.23 634.92 547.16 634.56 544.57 615.41 543.85"/><polygon id="polygon16320" stroke="#000" stroke-width=".216" points="688.28 544.43 687.84 543.2 687.27 542.92 661.78 540.9 661.35 541.12 661.56 541.84 662.72 544.93 684.32 546.52 685.04 546.88 685.11 547.74 684.75 548.1 668.33 547.09 668.26 546.52 664.16 546.23 663.58 547.02 663.94 548.39 664.59 548.82 690.29 550.26 690.65 549.61 689.36 545.44 671 544.5 667.4 543.78 667.4 543.06 683.09 544.14 683.38 544.43"/><polygon id="polygon16322" stroke="#000" stroke-width=".216" points="645.58 539.89 650.4 539.89 652.64 547.38 652.28 547.81 647.67 547.81"/><path id="path16324" stroke="#000" stroke-width=".216" d="m631.25 522.11l-1.94-1.44-0.72-0.58-0.72-0.29-0.36 0.36-0.29 0.36-11.88-3.38c-9.79-2.52-20.02-3.89-30.17-3.89-6.77 0-13.46 0.58-20.16 1.73l0.51 0.79c11.16-1.51 22.39-1.29 33.4 0.65v-1.01l-2.95-0.43-4.97-0.5-5.47-0.29c9.07 0 18.22 1.01 27.07 3.02 4.9 1.08 9.72 2.59 14.48 4.32l0.28 0.43 3.89 0.15z"/><path id="path16326" stroke="#000" stroke-width="1.44" fill="none" d="m682.95 513.68l1.08-1.94 0.72-0.58 20.23 1.16 0.65 1 0.36 1.16-0.29 8.28v0.07c0 1.15-0.94 2.01-1.94 2.01h-0.08l-18-0.28v-0.87l-2.73-10.01z"/><polyline id="polyline16328" stroke-width="1.44" stroke="#000" points="631.9 501.08 629.6 502.6 625.35 512.46 624.56 517.36" fill="none"/><line id="line16330" stroke-width=".216" x1="652.35" y1="516.06" stroke="#000" x2="652.71" y2="518.8" fill="none"/><polyline id="polyline16332" stroke-width="1.44" stroke="#000" points="649.04 505.76 651.92 512.17 652.28 514.69" fill="none"/><path id="path16334" stroke="#000" stroke-width=".216" d="m659.98 519.3c-5.11-4.25-11.59-6.7-18.29-6.7-5.54 0-11.01 1.73-15.69 4.83h2.23c9.5-5.11 21.09-4.47 29.95 1.73l1.8 0.14z"/><line id="line16336" stroke-width=".216" x1="685.4" y1="529.52" stroke="#000" x2="664.16" y2="527.51" fill="none"/><line id="line16338" stroke-width=".216" x1="657.1" y1="527" stroke="#000" x2="659.26" y2="527.22" fill="none"/><line id="line16340" stroke-width=".216" x1="624.99" y1="525.49" stroke="#000" x2="653.93" y2="527" fill="none"/><line id="line16342" stroke-width=".216" x1="595.97" y1="524.84" stroke="#000" x2="617.64" y2="525.35" fill="none"/><path id="path16344" stroke="#000" stroke-width=".216" fill="none" d="m541.54 527.15c12.31-1.3 24.55-2.02 36.79-2.09"/><line id="line16346" stroke-width=".216" x1="531.24" y1="528.3" stroke="#000" x2="539.52" y2="527.36" fill="none"/><path id="path16348" stroke="#000" stroke-width=".216" d="m656.24 470.05c-0.08-7.99-0.72-16.13-2.09-24.05-0.07-0.36-0.22-0.5-0.43-0.5-0.22 0-0.36 0.22-0.36 0.43 0 0 0 0.07 0.07 0.15 1.15 8.13 1.87 16.27 2.09 24.33l0.72-0.36z"/><polygon id="polygon16350" stroke="#000" stroke-width=".216" points="615.7 470.05 616.64 467.32 616.35 453.2 616.56 451.98 617.07 451.98 616.85 455.36 617.21 467.32 618.36 470.05"/><path id="path16352" stroke="#000" stroke-width=".216" d="m554.79 474.37l0.72-25.34v-3.75c0-0.43 0.65-0.43 0.65 0l-0.22 8.43-0.5 19.73-0.65 0.93z"/><path id="path16354" stroke="#000" stroke-width="1.44" fill="#e6e6e6" d="m649.83 464.58l-0.43-1.8-0.58-6.98c-0.72-3.1-3.46-5.26-6.7-5.26-3.09 0-5.83 2.09-6.55 5.11l-0.79 7.13-0.58 1.8h15.63z"/><rect id="rect16356" height="5.472" width="15.624" stroke="#000" y="464.58" x="634.2" stroke-width="1.44" fill="#7f7f7f"/><path id="path16358" stroke="#000" stroke-width="1.44" fill="#e6e6e6" d="m580.06 464.58l-0.43-1.8-0.51-6.98c-0.79-3.1-3.52-5.26-6.62-5.26-3.17 0-5.9 2.09-6.7 5.11l-0.72 7.13-0.64 1.8h15.62z"/><rect id="rect16360" height="5.472" width="15.624" stroke="#000" y="464.58" x="564.44" stroke-width="1.44" fill="#7f7f7f"/><polygon id="polygon16362" stroke="#000" stroke-width=".216" points="662.43 479.34 656.88 470.05 557.96 470.05 551.26 479.2 558.68 477.76 560.91 474.23 652.85 474.23 655.52 478.04 661.35 478.91"/><polygon id="polygon16364" stroke-width="1.44" stroke="#000" points="608.14 477.76 608.57 478.69 608.57 485.46 608.14 486.76 609.94 486.76 609.58 485.46 609.58 478.69 609.94 477.76" fill="none"/><path id="path16366" stroke="#000" stroke-width="1.44" fill="none" d="m597.34 486.76h22.46c1.08 0.43 1.73 1.36 1.73 2.59 0 1.37-0.86 2.52-2.23 2.81h-21.96c-2.23-1.08-2.23-4.4 0-5.4z"/><path id="path16368" stroke="#000" stroke-width="1.44" fill="none" d="m532.18 521.03l11.88-34.56c0.43-1.66 1.73-2.88 3.31-3.31 40.9-7.56 82.87-7.13 123.48 1.15l8.86 21.96 4.82 15.48c-25.7-3.03-52.7-4.68-79.56-4.68-24.19 0-48.38 1.37-72.43 3.96l-1.73 5.11c51.7-5.98 103.83-5.83 155.31 0.22l-0.94-2.6-0.65-2.01"/><path id="path16370" stroke="#000" stroke-width="1.44" fill="none" d="m534.99 510.73h-19.66c-1.44 0.29-2.66 1.3-3.02 2.74v7.34c0 0.87 0.72 1.66 1.65 1.66l17.07 0.07 3.96-11.81z"/><path id="path16372" stroke="#000" stroke-width="1.44" fill="none" d="m544.85 481.72l-1.15-0.44-0.58 0.15-2.01 1.8c-1.8-1.08-3.82-1.73-5.98-1.73-1.65 0-3.31 0.36-4.82 1.08l-0.79 1.37v7.85c0.14 0.72 0.86 1.36 1.72 1.36 0.08 0 0.22 0 0.29-0.07h2.67l7.56-2.52 1-2.81-0.5-3.88 0.5-0.36 0.8 0.36 0.36 0.28 0.93-2.44z"/><path id="path16374" stroke="#000" stroke-width="1.44" fill="none" d="m546.87 480.06l17.06-3.24c32.69-3.74 65.45-2.95 97.63 2.16l8.5 3.24c0.65 0.29 1.22 0.94 1.44 1.73 6.12 13.03 10.87 26.35 14.26 40.03l-0.08 2.45c0.36 1.37 1.37 2.45 2.74 2.81l7.34 3.02c6.77 3.1 12.39 8.28 15.92 14.69l5.11 12.09c0.07 0.22 0.07 0.44 0.07 0.65 0 1.66-1.3 3.1-2.95 3.24-68.55 2.45-137.95 2.16-207.29-0.93-2.02-0.51-3.38-2.09-3.6-4.04l2.38-8.42 3.16-6.84c4.83-7.63 12.24-13.1 20.88-15.41l14.26-42.48 1.08-2.81c0.29-1 1.08-1.72 2.09-1.94z"/><path id="path16376" stroke="#000" stroke-width=".216" d="m624.7 521.96l0.22 2.88 11.59 0.44 0.21-2.88c-0.72 0-5.25-0.15-9.64-0.36l-2.38-0.08z"/><polygon id="polygon16378" points="570.05 456.52 570.77 454.21 572.64 454 573.8 455 573.94 457.74 574.16 461.27 574.37 464.58 569.62 464.58 569.76 459.97" fill="#fff"/><polygon id="polygon16380" points="639.82 456.52 640.54 454.21 642.27 454 643.49 455 643.71 457.74 643.92 461.27 644.07 464.58 639.32 464.58 639.53 459.97" fill="#fff"/><path id="path16382" stroke="#000" stroke-width=".216" fill="#b3b3b3" d="m506.76 564.23l7.2 0.5c-0.28 2.74-0.43 5.55-0.43 8.5 0 5.18 0.43 10.37 1.23 15.55l-8.64-0.07c-1.3-8.14-1.23-16.42 0.36-24.48 0.07 0.07 0.14 0.07 0.28 0z"/><path id="path16384" stroke="#000" stroke-width="1.44" fill="#e6e6e6" d="m503.02 558.11l-0.07 3.31c0.14 1.66 1.51 2.88 3.09 2.88h0.44c-0.87 4.25-1.23 8.64-1.23 13.03 0 3.82 0.29 7.56 0.87 11.38h-1.59c-2.23-0.36-3.74-2.52-3.38-4.68l0.29-4.39-0.29-4.68-0.43-2.38-0.29-2.59 0.72-3.03 0.79-1.94-0.22-1.94 1.3-4.97z"/><path id="path16386" stroke="#000" stroke-width="1.44" fill="#e6e6e6" d="m562.2 587.48l-0.36 0.08-13.1-11.09-21.31 0.07-12.24 12.1-0.43 0.07c-1.23-7.99-1.59-16.06-0.8-24.12l39.75 0.72c1.37-0.07 2.66 0.79 3.09 2.16 1.95 6.26 4.11 12.09 6.41 17.71 0.07 0.14 0.07 0.36 0.07 0.65 0 0.72-0.36 1.37-1.08 1.65z"/><polygon id="polygon16388" stroke-width="1.44" stroke="#000" points="561.84 587.56 556.8 588.06 515.19 588.64 527.43 576.54 548.74 576.47" fill="#b3b3b3"/><path id="path16390" stroke="#000" stroke-width=".216" fill="#b3b3b3" d="m714.34 588.71h-9.29c0.87-5.19 1.3-10.37 1.3-15.48 0-2.88-0.15-5.69-0.36-8.43l7.2-0.57c0.21 0.07 0.43 0.07 0.65 0.07h0.07c0.29 6.26 0.5 12.53 0.5 18.79 0 1.73 0 3.39-0.07 5.11v0.51z"/><path id="path16392" stroke="#000" stroke-width="1.44" fill="#e6e6e6" d="m713.91 564.3c1.58 0 2.88-1.3 3.02-2.88l-0.07-2.02 1.3 3.68-0.15 1.94 0.72 1.94 0.65 3.03-0.29 2.59-0.36 2.38-0.29 4.68 0.29 4.39c0.07 0.21 0.07 0.43 0.07 0.65 0 1.94-1.51 3.67-3.45 4.03h-1.01c0.07-2.23 0.07-3.89 0.07-5.62 0-6.26-0.21-12.53-0.5-18.65v-0.14z"/><path id="path16394" stroke="#000" stroke-width="1.44" fill="#e6e6e6" d="m657.68 587.48l13.24-9.93 20.6-0.07 13.17 11.16 0.36 0.07c0.87-5.19 1.3-10.37 1.3-15.48 0-2.88-0.15-5.69-0.36-8.43l-39.82 0.51h-0.07c-1.37 0-2.59 0.79-3.02 2.16-1.88 5.83-3.96 11.73-6.34 17.42-0.22 0.43-0.22 0.65-0.22 0.94 0 0.72 0.44 1.37 1.16 1.65z"/><polygon id="polygon16396" stroke-width="1.44" stroke="#000" points="691.52 577.48 670.92 577.55 657.68 587.48 663.08 588.06 704.69 588.64" fill="#b3b3b3"/></g>
<metadata><rdf:RDF><cc:Work><dc:format>image/svg+xml</dc:format><dc:type rdf:resource="http://purl.org/dc/dcmitype/StillImage"/><cc:license rdf:resource="http://creativecommons.org/licenses/publicdomain/"/><dc:publisher><cc:Agent rdf:about="http://openclipart.org/"><dc:title>Openclipart</dc:title></cc:Agent></dc:publisher></cc:Work><cc:License rdf:about="http://creativecommons.org/licenses/publicdomain/"><cc:permits rdf:resource="http://creativecommons.org/ns#Reproduction"/><cc:permits rdf:resource="http://creativecommons.org/ns#Distribution"/><cc:permits rdf:resource="http://creativecommons.org/ns#DerivativeWorks"/></cc:License></rdf:RDF></metadata></svg>
